<svg xmlns="http://www.w3.org/2000/svg" viewBox="0 0 1200 630" width="1200" height="630">
  <defs>
    <linearGradient id="kld-bg" x1="0%" y1="0%" x2="100%" y2="100%">
      <stop offset="0%" stop-color="#030303"/>
      <stop offset="52%" stop-color="#0b0b0b"/>
      <stop offset="100%" stop-color="#141414"/>
    </linearGradient>
    <radialGradient id="kld-glow" cx="72%" cy="22%" r="65%">
      <stop offset="0%" stop-color="#f8fafc" stop-opacity="0.07"/>
      <stop offset="100%" stop-color="#f8fafc" stop-opacity="0"/>
    </radialGradient>
    <pattern id="kld-grid" x="0" y="0" width="36" height="36" patternUnits="userSpaceOnUse">
      <path d="M36 0H0V36" fill="none" stroke="#27272a" stroke-width="1" opacity="0.45"/>
    </pattern>
  </defs>
  <rect width="1200" height="630" fill="url(#kld-bg)"/>
  <rect width="1200" height="630" fill="url(#kld-grid)"/>
  <rect width="1200" height="630" fill="url(#kld-glow)"/>

  <!-- App window -->
  <rect x="64" y="56" width="1072" height="518" rx="18" fill="#0b0b0c" stroke="#2a2a2c" stroke-width="1.5"/>
  <rect x="64" y="56" width="1072" height="52" rx="18" fill="#111113"/>
  <circle cx="96" cy="82" r="5" fill="#3f3f46"/>
  <circle cx="114" cy="82" r="5" fill="#3f3f46"/>
  <circle cx="132" cy="82" r="5" fill="#3f3f46"/>
  <text x="1088" y="87" text-anchor="end" font-family="ui-sans-serif, system-ui, sans-serif" font-size="11" font-weight="600" fill="#a1a1aa">KNOWLEDGE DASHBOARD</text>

  <!-- Sidebar -->
  <rect x="88" y="128" width="200" height="420" rx="10" fill="#111113" stroke="#2a2a2c"/>
  <text x="104" y="158" font-family="ui-sans-serif, system-ui, sans-serif" font-size="10" font-weight="700" fill="#71717a" letter-spacing="0.12em">SPACES</text>
  <rect x="100" y="172" width="176" height="28" rx="6" fill="#1a1b1f"/>
  <text x="112" y="190" font-family="ui-sans-serif, system-ui, sans-serif" font-size="11" font-weight="600" fill="#e4e4e7">Strategy notes</text>
  <rect x="100" y="206" width="176" height="28" rx="6" fill="transparent"/>
  <text x="112" y="224" font-family="ui-sans-serif, system-ui, sans-serif" font-size="11" fill="#a1a1aa">Projects</text>
  <rect x="100" y="240" width="176" height="28" rx="6" fill="transparent"/>
  <text x="112" y="258" font-family="ui-sans-serif, system-ui, sans-serif" font-size="11" fill="#a1a1aa">Archive</text>

  <!-- Main panel -->
  <rect x="308" y="128" width="804" height="420" rx="10" fill="#0e0e10" stroke="#2a2a2c"/>
  <text x="332" y="162" font-family="ui-sans-serif, system-ui, sans-serif" font-size="13" font-weight="700" fill="#e5e7eb">Recent entries</text>
  <text x="332" y="186" font-family="ui-sans-serif, system-ui, sans-serif" font-size="11" fill="#71717a">Imports, journals, and linked ideas</text>

  <rect x="332" y="206" width="756" height="72" rx="8" fill="#121214" stroke="#2f2f33"/>
  <text x="348" y="232" font-family="ui-sans-serif, system-ui, sans-serif" font-size="12" font-weight="600" fill="#fafafa">Q1 market signals  retail</text>
  <text x="348" y="254" font-family="ui-sans-serif, system-ui, sans-serif" font-size="10" fill="#a1a1aa">Linked to 4 nodes · updated today</text>

  <rect x="332" y="288" width="756" height="72" rx="8" fill="#121214" stroke="#2f2f33"/>
  <text x="348" y="314" font-family="ui-sans-serif, system-ui, sans-serif" font-size="12" font-weight="600" fill="#fafafa">Weekly journal  decision log</text>
  <text x="348" y="336" font-family="ui-sans-serif, system-ui, sans-serif" font-size="10" fill="#a1a1aa">Daily journaling · 3 cross-links</text>

  <rect x="332" y="370" width="756" height="72" rx="8" fill="#121214" stroke="#2f2f33"/>
  <text x="348" y="396" font-family="ui-sans-serif, system-ui, sans-serif" font-size="12" font-weight="600" fill="#fafafa">Knowledge graph snapshot</text>
  <text x="348" y="418" font-family="ui-sans-serif, system-ui, sans-serif" font-size="10" fill="#a1a1aa">Idea linking · 28 nodes</text>

  <!-- Tag pills (aligned with hero thumbnail) -->
  <rect x="332" y="486" width="128" height="32" rx="16" fill="#121214" stroke="#3f3f46"/>
  <text x="396" y="506.5" text-anchor="middle" font-family="ui-sans-serif, system-ui, sans-serif" font-size="11.5" font-weight="700" fill="#e4e4e7">Daily Journaling</text>
  <rect x="468" y="486" width="130" height="32" rx="16" fill="#121214" stroke="#3f3f46"/>
  <text x="533" y="506.5" text-anchor="middle" font-family="ui-sans-serif, system-ui, sans-serif" font-size="11.5" font-weight="700" fill="#e4e4e7">Knowledge Graph</text>
  <rect x="606" y="486" width="86" height="32" rx="16" fill="#121214" stroke="#3f3f46"/>
  <text x="649" y="506.5" text-anchor="middle" font-family="ui-sans-serif, system-ui, sans-serif" font-size="11.5" font-weight="700" fill="#e4e4e7">Archiving</text>
  <rect x="700" y="486" width="100" height="32" rx="16" fill="#121214" stroke="#3f3f46"/>
  <text x="750" y="506.5" text-anchor="middle" font-family="ui-sans-serif, system-ui, sans-serif" font-size="11.5" font-weight="700" fill="#e4e4e7">Idea Linking</text>
</svg>
